# xmcd
#
# Track frame offsets:
#        150
#        27842
#        58452
#        76730
#        88457
#        106317
#        124497
#        139535
#        166652
#        185345
#        218907
#        245915
#        261410
#        285895
#
# Disc length: 4169 seconds
#
# Revision: 0
# Processed by: cddbd v1.5.1PL0 Copyright (c) Steve Scherf et al.
# Submitted via: ExactAudioCopy v0.95a5
#
DISCID=cc10470e
DTITLE=SONNY ROLLINS - THE BEST OF SONNY ROLLINS
DYEAR=1900
DGENRE=Jazz
TTITLE0=DON'T STOP THE CARNIVAR
TTITLE1=BROWN SKIN GIRL
TTITLE2=NOW'S THE TIME
TTITLE3=I REMEMBER CLIFFORD
TTITLE4=ST.THOMAS
TTITLE5='ROUND MIDNIGHT
TTITLE6=NIGHT AND DAY
TTITLE7=MY ONE AND ONLY LOVE
TTITLE8=TRAV'LIN LIGHT
TTITLE9=WITHOUT A SONG
TTITLE10=THE BRIDGE
TTITLE11=WHEN YOU WISH UPON A STAR
TTITLE12=DJANGO
TTITLE13=SUMMERTIME
EXTD=
EXTT0=
EXTT1=
EXTT2=
EXTT3=
EXTT4=
EXTT5=
EXTT6=
EXTT7=
EXTT8=
EXTT9=
EXTT10=
EXTT11=
EXTT12=
EXTT13=
PLAYORDER=
